<?xml version="1.0" encoding="UTF-8"?><svg xmlns="http://www.w3.org/2000/svg" xmlns:xlink="http://www.w3.org/1999/xlink" width="375" zoomAndPan="magnify" viewBox="0 0 375 374.999991" height="374.999991" preserveAspectRatio="xMidYMid meet" version="1.0"><defs><clipPath id="clip-0"><path d="M 0 0 L 374.605469 0 L 374.605469 371.609375 L 0 371.609375 Z M 0 0 " clip-rule="nonzero"/></clipPath><clipPath id="clip-1"><path d="M 98.503906 0 L 317.273438 0 L 317.273438 185.804688 L 98.503906 185.804688 Z M 98.503906 0 " clip-rule="nonzero"/></clipPath></defs><g clip-path="url(#clip-0)"><path fill="rgb(18.429565%, 25.489807%, 29.40979%)" d="M 98.238281 184.796875 L 143.917969 184.796875 L 225.46875 40.015625 L 292.910156 40.015625 L 328.65625 103.292969 L 263.675781 214.894531 L 244.519531 247.757812 L 85.644531 247.757812 L 46.9375 184.949219 L 85.546875 123.394531 L 244.507812 123.394531 L 309.769531 235.457031 L 328.664062 267.910156 L 292.886719 331.59375 L 225.535156 331.59375 L 146.355469 189.308594 L 143.917969 184.929688 L 98.238281 184.929688 L 111.597656 208.71875 L 202.101562 371.441406 L 316.191406 371.441406 L 374.574219 267.558594 L 344.191406 215.355469 L 267.417969 83.523438 L 63.457031 83.523438 L 0 184.742188 L 63.378906 287.636719 L 267.417969 287.636719 L 298.050781 234.960938 L 374.59375 103.621094 L 316.191406 0.125 L 202.175781 0.125 L 98.238281 184.773438 Z M 98.238281 184.796875 " fill-opacity="1" fill-rule="nonzero"/></g><g clip-path="url(#clip-1)"><path fill="rgb(39.99939%, 50.979614%, 57.249451%)" d="M 317.25 0 L 202.84375 0 L 155.746094 83.625 L 133.214844 123.636719 L 98.523438 185.222656 L 144.644531 185.773438 L 144.378906 185.300781 L 179.125 123.636719 L 201.65625 83.625 L 226.21875 40.011719 L 293.917969 40.011719 " fill-opacity="1" fill-rule="nonzero"/></g></svg>